<?xml version="1.0" encoding="UTF-8" standalone="no"?>
<!DOCTYPE svg PUBLIC "-//W3C//DTD SVG 1.1//EN" "http://www.w3.org/Graphics/SVG/1.1/DTD/svg11.dtd">
<svg width="100%" height="100%" viewBox="0 0 115 115" version="1.1" xmlns="http://www.w3.org/2000/svg" xmlns:xlink="http://www.w3.org/1999/xlink" xml:space="preserve" xmlns:serif="http://www.serif.com/" style="fill-rule:evenodd;clip-rule:evenodd;stroke-linejoin:round;stroke-miterlimit:2;">
    <g transform="matrix(1,0,0,1,-25.4235,-206.346)">
        <g transform="matrix(0.986361,0,0,0.98848,10.3945,11.1216)">
            <g transform="matrix(1,0,0,1,-24.2529,194.083)">
                <g>
                    <g transform="matrix(1.01383,0,0,1.01165,13.7146,-205.335)">
                        <circle cx="82.432" cy="263.354" r="57.008" style="fill:white;"/>
                    </g>
                    <g transform="matrix(1.01383,0,0,1.01165,13.7146,-205.335)">
                        <path d="M82.432,206.346C113.895,206.346 139.44,231.89 139.44,263.354C139.44,294.818 113.895,320.362 82.432,320.362C50.968,320.362 25.424,294.818 25.424,263.354C25.424,231.89 50.968,206.346 82.432,206.346ZM83.858,208.346C112.246,208.346 135.293,231.393 135.293,259.781C135.293,276.19 127.592,290.816 115.609,300.236C106.863,307.112 86.836,297.215 74.858,297.215C63.541,297.215 62.072,307.552 53.574,301.348C40.757,291.99 32.424,276.851 32.424,259.781C32.424,231.393 55.471,208.346 83.858,208.346Z" style="fill:rgb(114,154,50);"/>
                    </g>
                    <g transform="matrix(1.31048,-0.328374,0.564726,1.18143,-80.8398,15.3336)">
                        <path d="M91.742,84.948C89.3,79.361 94.417,63.565 113.631,53.796C133.851,43.517 151.853,54.306 151.853,54.306C151.853,54.306 140.436,68.544 133.567,77.449C124.053,89.785 105.101,90.79 96.317,88.018" style="fill:rgb(114,154,50);"/>
                        <path d="M91.742,84.948C90.547,81.984 91.486,76.261 95.443,70.149C98.967,64.704 104.892,58.948 113.885,54.594C120.91,51.148 127.615,50.322 133.354,50.634C136.844,50.824 139.976,51.443 142.606,52.175C145.939,53.103 148.458,54.219 149.837,54.901C148.276,56.876 145.173,60.814 141.792,65.181C138.734,69.13 135.46,73.435 132.845,76.923C128.542,82.722 122.064,86.015 115.55,87.669C108.271,89.518 100.931,89.318 96.317,88.018C101.693,89.9 110.968,90.436 119.606,87.7C125.151,85.944 130.409,82.824 134.289,77.975L152.81,55.047C153.072,54.721 153.207,54.322 153.182,53.948C153.158,53.574 152.976,53.26 152.682,53.084C152.682,53.084 149.277,51.018 143.719,49.555C140.938,48.823 137.615,48.243 133.921,48.145C127.824,47.985 120.722,49.132 113.377,52.999C106.036,56.91 100.765,61.631 97.202,66.316C91.373,73.981 90.112,81.49 91.742,84.948Z" style="fill:rgb(255,255,254);"/>
                    </g>
                    <g transform="matrix(0.995567,0.191141,-0.191552,0.993433,71.154,-213.824)">
                        <path d="M72.98,285.842C72.98,285.842 73.094,288.998 73.667,292.606C74.495,297.823 71.812,298.058 71.812,298.058L79.582,298.388C79.582,298.388 78.472,296.815 79.058,292.793C79.84,287.417 80.599,286.429 80.599,286.429L72.98,285.842Z" style="fill:rgb(114,154,50);"/>
                    </g>
                    <g transform="matrix(-0.472887,0.56687,0.0440754,0.0318912,163.795,-12.1579)">
                        <path d="M131.521,-59.314C148.902,-56.34 170.299,76.846 170.299,76.846L169.875,114.285C169.875,114.285 152.789,13.337 130.79,8.786C100.083,2.433 75.193,212.973 75.193,212.973C75.193,212.973 95.573,-65.463 131.521,-59.314Z" style="fill:white;"/>
                    </g>
                </g>
            </g>
        </g>
    </g>
</svg>
